<svg xmlns="http://www.w3.org/2000/svg" width="100" viewBox="0 0 1753.19 460.06"><defs><style>.cls-1{fill:#282e3d;}</style></defs><g id="Laag_2" data-name="Laag 2"><g id="Layer_1" data-name="Layer 1"><path class="cls-1" d="M447.2,239.21C442.63,359.11,346.47,456.34,229,460c-2.54.08-5.08.11-7.6.1-65.38-.18-68.21-100.34-3-104.88,16.12-1.12,25.79,1,25.79,1C364.91,371.51,377.44,315,377.44,315c25.19-16.63,18.24-46,7.9-48.07s-59.26-14.06-81.59-58.88-76.38-51.32-76.38-51.32,5-37.53-31.39-45.21c-43.26-9.11-50.49,30.37-50.49,30.37C89.66,132.42,25.56,167.07,0,190,18.57,82,110.91,0,222,0,349.45,0,452.2,108,447.2,239.21Z"/><path class="cls-1" d="M242.75,211.15c8.52-3.66,23.2-6,34.78,12.67,2,3.25-1,7.39-4.56,6.24a54,54,0,0,0-14.65-2.68c-9-.22-12.12-5.56-16.57-9.19A4.17,4.17,0,0,1,242.75,211.15Z"/><path class="cls-1" d="M703,131.3,676.79,289H648l-52.06-99.27h-1.15L578.22,289H544.88L571.06,131.3h29.26L652,230.49h1.38l16.4-99.19Z"/><path class="cls-1" d="M862,212.32q-4.31,25.34-16.67,42.93A83.21,83.21,0,0,1,815.17,282a82,82,0,0,1-38.12,9.16q-21.56,0-37.11-9.78t-22.45-28.3q-6.9-18.51-2.58-44.7,4.15-25.33,16.52-43a83.61,83.61,0,0,1,30.26-26.95,82.36,82.36,0,0,1,38.47-9.28q21.33,0,36.84,9.85t22.41,28.46Q866.31,186.06,862,212.32Zm-33.19-3.93q2.7-16.24-.19-27.3T818.1,164.34q-7.62-5.7-19.18-5.7A44.19,44.19,0,0,0,775.71,165,52,52,0,0,0,758,183.25q-7.2,12-9.89,29.07-2.85,16.32.11,27.26t10.71,16.52q7.74,5.58,19.29,5.58a44.21,44.21,0,0,0,23-6.2,51.49,51.49,0,0,0,17.63-18.1Q826,225.49,828.8,208.39Z"/><path class="cls-1" d="M930.53,289H873.85L900,131.3h55.6q23.8,0,39.55,9.71a52.23,52.23,0,0,1,22.21,27.76q6.48,18.06,2.31,43-4,24.25-15.94,41.54a79.14,79.14,0,0,1-30.57,26.49Q954.56,289,930.53,289ZM912,260.45h20.56q14.79,0,26-5.55a45.23,45.23,0,0,0,18.41-17.09q7.2-11.56,10.12-29.58,2.93-17.08-.23-27.76a25.06,25.06,0,0,0-12.28-15.63q-9.13-5-23.91-5h-22Z"/><path class="cls-1" d="M1031.56,289l26.18-157.72H1164l-4.62,27.5h-72.92l-6.16,37.58h67.46l-4.63,27.49h-67.45l-6.16,37.65h73.23l-4.62,27.5Z"/><path class="cls-1" d="M1214.68,289l26.19-157.72h62.22q17.94,0,29.42,6.82A37,37,0,0,1,1348.64,157q4.65,12,2.12,27.76a64.28,64.28,0,0,1-11.36,27.76,59.32,59.32,0,0,1-22.72,18.67q-14,6.7-32.15,6.7h-39.66l4.39-26.72h34.27a37.67,37.67,0,0,0,16.59-3.35,27.32,27.32,0,0,0,10.94-9.32,34.33,34.33,0,0,0,5.35-13.74,27.73,27.73,0,0,0-.88-13.75,17,17,0,0,0-7.86-9.16q-5.73-3.27-15.44-3.28h-22.49L1248,289Z"/><path class="cls-1" d="M1512.7,212.32q-4.32,25.34-16.67,42.93A83.21,83.21,0,0,1,1465.88,282a82.05,82.05,0,0,1-38.12,9.16q-21.55,0-37.12-9.78t-22.44-28.3q-6.9-18.51-2.58-44.7,4.16-25.33,16.51-43a83.64,83.64,0,0,1,30.27-26.95,82.32,82.32,0,0,1,38.46-9.28q21.33,0,36.85,9.85t22.41,28.46Q1517,186.06,1512.7,212.32Zm-33.19-3.93q2.7-16.24-.19-27.3t-10.51-16.75q-7.63-5.7-19.18-5.7a44.25,44.25,0,0,0-23.22,6.32,52,52,0,0,0-17.71,18.29q-7.2,12-9.89,29.07-2.85,16.32.11,27.26t10.71,16.52q7.72,5.58,19.29,5.58a44.18,44.18,0,0,0,23-6.2,51.43,51.43,0,0,0,17.64-18.1Q1476.74,225.49,1479.51,208.39Z"/><path class="cls-1" d="M1524.56,289l26.18-157.72h33.35l-21.57,130.22h67.62l-4.62,27.5Z"/><path class="cls-1" d="M1647.61,289,1673.8,131.3h33.34l-21.56,130.22h67.61l-4.62,27.5Z"/></g></g></svg>